<?xml version="1.0" encoding="UTF-8"?>
<svg id="Layer_2" data-name="Layer 2" xmlns="http://www.w3.org/2000/svg" viewBox="0 0 1400 1400">
  <g id="Layer_1-2" data-name="Layer 1">
    <g>
      <path d="m700,0C314.02,0,0,314.02,0,700s314.02,700,700,700,700-314.02,700-700S1085.98,0,700,0Zm0,1312.5c-337.73,0-612.5-274.76-612.5-612.5S362.27,87.5,700,87.5s612.5,274.77,612.5,612.5-274.76,612.5-612.5,612.5Z"/>
      <path d="m1050,656.25h-306.25v-306.25c0-24.16-19.59-43.75-43.75-43.75s-43.75,19.59-43.75,43.75v306.25h-306.25c-24.16,0-43.75,19.59-43.75,43.75s19.59,43.75,43.75,43.75h306.25v306.25c0,24.16,19.59,43.75,43.75,43.75s43.75-19.59,43.75-43.75v-306.25h306.25c24.16,0,43.75-19.59,43.75-43.75s-19.59-43.75-43.75-43.75Z"/>
    </g>
  </g>
</svg>