<?xml version="1.0" encoding="utf-8"?>
<!-- Generator: Adobe Illustrator 27.6.1, SVG Export Plug-In . SVG Version: 6.00 Build 0)  -->
<svg version="1.1" id="Layer_2_00000165204456235482769240000004349544742366644393_"
	 xmlns="http://www.w3.org/2000/svg" xmlns:xlink="http://www.w3.org/1999/xlink" x="0px" y="0px" viewBox="0 0 1225.7 1027.3"
	 style="enable-background:new 0 0 1225.7 1027.3;" xml:space="preserve">
<g id="Layer_1-2">
	<g>
		<path d="M784.5,952.6H33.6C15.1,952.6,0,967.7,0,986.2v7.5c0,18.5,15.1,33.6,33.6,33.6h750.9c18.5,0,33.6-15.1,33.6-33.6v-7.5
			C818.1,967.6,803.1,952.6,784.5,952.6z"/>
		<path d="M96.4,927.6h625.3c20.6,0,37.4-16.8,37.4-37.4s-16.8-37.4-37.4-37.4H96.4c-20.6,0-37.4,16.8-37.4,37.4
			S75.8,927.6,96.4,927.6z"/>
		<path d="M1200.9,713.1L715.6,351.5l-46,55l441.3,414.1c29.6,24.6,73.8,20.6,98.5-9C1234.2,782.1,1230.3,737.9,1200.9,713.1z"/>
		<path d="M607.1,57.6l2.6,2.2l0,0L806,224.1l0,0l2.6,2.2c12.5,10.5,31.2,8.8,41.7-3.7l4.4-5.3c10.5-12.5,8.8-31.2-3.7-41.7
			L649.5,6.9C644,2.3,637.2,0,630.5,0c-8.5,0-16.9,3.6-22.7,10.6l-4.4,5.3c-5.1,6.1-7.5,13.7-6.8,21.6S601,52.5,607.1,57.6z"/>
		<path d="M318.8,401.9l201.6,168.7c12.5,10.5,31.2,8.8,41.7-3.7l4.4-5.3c10.5-12.5,8.8-31.2-3.7-41.7l-2.6-2.2l0,0l-199-166.4
			c-5.4-4.5-12-6.9-18.9-6.9c-0.9,0-1.8,0-2.7,0.1c-7.9,0.7-15,4.4-20.1,10.5l-4.4,5.3c-5.1,6.1-7.5,13.7-6.8,21.6
			S312.7,396.8,318.8,401.9L318.8,401.9z"/>
		<path d="M780.4,235.2L603.2,86.9L389.5,342.3l177.1,148.3L780.4,235.2L780.4,235.2z M461.9,330.9c-2.8,0-5.7-1-8-2.9
			c-5.3-4.4-6-12.3-1.6-17.6l134.6-160.8c4.4-5.3,12.3-6,17.6-1.6s6,12.3,1.6,17.6L471.5,326.4C469,329.4,465.5,330.9,461.9,330.9
			L461.9,330.9z"/>
	</g>
</g>
</svg>
