<?xml version="1.0" encoding="utf-8"?>
<!-- Generator: Adobe Illustrator 27.6.1, SVG Export Plug-In . SVG Version: 6.00 Build 0)  -->
<svg version="1.1" id="Layer_2_00000103987836426276546570000014942504945052884644_"
	 xmlns="http://www.w3.org/2000/svg" xmlns:xlink="http://www.w3.org/1999/xlink" x="0px" y="0px" viewBox="0 0 2400 2400"
	 style="enable-background:new 0 0 2400 2400;" xml:space="preserve">
<g id="_Ñëîé_1">
	<path d="M2305.7,732.9c-30.1-71.1-67.3-139.7-110.6-203.9c-42.9-63.5-92.2-123.3-146.5-177.5c-54.3-54.3-114-103.6-177.5-146.5
		c-64.2-43.3-132.8-80.6-203.9-110.7C1519.1,31.7,1362,0,1200,0S880.9,31.7,732.9,94.3C661.8,124.4,593.2,161.6,529,205
		c-63.5,42.9-123.3,92.2-177.5,146.5C297.2,405.8,247.9,465.5,205,529c-43.3,64.2-80.6,132.8-110.7,203.9C31.7,880.9,0,1038,0,1200
		s31.7,319.1,94.3,467.1c30.1,71.1,67.3,139.7,110.7,203.9c42.9,63.5,92.2,123.3,146.5,177.5c5.1,5.1,10.3,10.1,15.5,15.2
		c4.5,5.7,9.8,10.8,15.8,14.9c45.7,42.5,94.8,81.5,146.3,116.4c64.2,43.3,132.8,80.6,203.9,110.6c148,62.6,305.2,94.3,467.1,94.3
		s319.1-31.7,467.1-94.3c71.1-30.1,139.7-67.3,203.9-110.6c51.6-34.8,100.6-73.9,146.3-116.4c5.9-4.2,11.2-9.2,15.8-14.9
		c5.2-5,10.4-10.1,15.5-15.2c54.3-54.3,103.6-114,146.5-177.5c43.3-64.2,80.6-132.8,110.6-203.9c62.6-148,94.3-305.2,94.3-467.1
		S2368.3,880.9,2305.7,732.9L2305.7,732.9z M1200,2250c-267.6,0-512.1-100.6-697.8-266c10.2-126.6,78.5-242.3,195-328.8
		c130.6-97,309.1-150.4,502.8-150.4s372.2,53.4,502.8,150.4c116.4,86.5,184.8,202.3,195,328.8C1712.1,2149.4,1467.6,2250,1200,2250z
		 M802.7,958.1c0-218.7,178.2-396.7,397.3-396.7s397.3,177.9,397.3,396.7s-178.2,396.7-397.3,396.7S802.7,1176.8,802.7,958.1z
		 M2023.9,1850.2c-37.7-121.4-116.8-230.1-231.7-315.5c-78.4-58.2-170.4-103.3-271.2-133.8c23.3-16.9,45.3-35.6,65.9-56.2
		c50.2-50.2,89.7-108.6,117.3-173.7c28.6-67.4,43.1-139.1,43.1-212.8s-14.5-145.4-43.1-212.8c-27.6-65.1-67-123.6-117.3-173.7
		c-50.2-50.2-108.8-89.6-173.9-117.1c-67.5-28.5-139.2-43-213-43s-145.5,14.5-213,43c-65.2,27.5-123.7,66.9-174,117.1
		c-50.2,50.2-89.7,108.6-117.3,173.7c-28.6,67.5-43.1,139.1-43.1,212.8s14.5,145.4,43.1,212.8c27.6,65.1,67,123.6,117.3,173.7
		c20.6,20.6,42.6,39.3,65.9,56.2c-100.7,30.5-192.8,75.6-271.2,133.8c-114.9,85.4-194,194.1-231.7,315.4
		C234.6,1671.2,150,1445.3,150,1200c0-579,471-1050,1050-1050s1050,471,1050,1050C2250,1445.3,2165.4,1671.2,2023.9,1850.2
		L2023.9,1850.2z"/>
</g>
</svg>
